<?xml version="1.0" encoding="UTF-8" standalone="no"?>
<!-- Created with Inkscape (http://www.inkscape.org/) -->

<svg
   xmlns:dc="http://purl.org/dc/elements/1.1/"
   xmlns:cc="http://creativecommons.org/ns#"
   xmlns:rdf="http://www.w3.org/1999/02/22-rdf-syntax-ns#"
   xmlns:svg="http://www.w3.org/2000/svg"
   xmlns="http://www.w3.org/2000/svg"
   xmlns:xlink="http://www.w3.org/1999/xlink"
   xmlns:sodipodi="http://sodipodi.sourceforge.net/DTD/sodipodi-0.dtd"
   xmlns:inkscape="http://www.inkscape.org/namespaces/inkscape"
   width="568"
   height="118"
   id="svg2"
   version="1.1"
   inkscape:version="0.47 r22583">
  <g
     inkscape:label="Layer 1"
     inkscape:groupmode="layer"
     id="layer1"
     transform="translate(-144.19251,-515.02873)">
    <path
       id="path16125"
       d="m 699.2424,633.02873 12.95011,0 0,-12.93027 -12.95011,0 z"
       style="fill:#87cd25;fill-rule:nonzero;stroke:none" />
    <path
       id="path16127"
       d="m 684.2298,633.02873 12.95011,0 0,-12.93027 -12.95011,0 z"
       style="fill:#87cd25;fill-rule:nonzero;stroke:none" />
    <path
       id="path16129"
       d="m 669.2172,633.02873 12.93027,0 0,-12.93027 -12.93027,0 z"
       style="fill:#87cd25;fill-rule:nonzero;stroke:none" />
    <path
       id="path16131"
       d="m 654.20459,633.02873 12.93028,0 0,-12.93027 -12.93028,0 z"
       style="fill:#87cd25;fill-rule:nonzero;stroke:none" />
    <path
       id="path16133"
       d="m 609.2461,527.98017 12.95011,0 0,-12.95011 -12.95011,0 z"
       style="fill:#4e4b4c;fill-rule:nonzero;stroke:none" />
    <path
       id="path16135"
       d="m 609.2461,542.97294 12.95011,0 0,-12.93028 -12.95011,0 z"
       style="fill:#4e4b4c;fill-rule:nonzero;stroke:none" />
    <path
       id="path16137"
       d="m 609.2461,557.96571 12.95011,0 0,-12.93027 -12.95011,0 z"
       style="fill:#4e4b4c;fill-rule:nonzero;stroke:none" />
    <path
       id="path16139"
       d="m 624.25871,557.96571 12.93027,0 0,-12.93027 -12.93027,0 z"
       style="fill:#4e4b4c;fill-rule:nonzero;stroke:none" />
    <path
       id="path16141"
       d="m 594.25333,557.96571 12.93028,0 0,-12.93027 -12.93028,0 z"
       style="fill:#4e4b4c;fill-rule:nonzero;stroke:none" />
    <path
       id="path16143"
       d="m 534.22275,557.96571 12.9501,0 0,-12.93027 -12.9501,0 z"
       style="fill:#4e4b4c;fill-rule:nonzero;stroke:none" />
    <path
       id="path16145"
       d="m 549.21552,557.96571 12.95011,0 0,-12.93027 -12.95011,0 z"
       style="fill:#4e4b4c;fill-rule:nonzero;stroke:none" />
    <path
       id="path16147"
       d="m 519.21014,557.96571 12.95011,0 0,-12.93027 -12.95011,0 z"
       style="fill:#4e4b4c;fill-rule:nonzero;stroke:none" />
    <path
       id="path16149"
       d="m 474.23182,557.96571 12.93028,0 0,-12.93027 -12.93028,0 z"
       style="fill:#4e4b4c;fill-rule:nonzero;stroke:none" />
    <path
       id="path16151"
       d="m 459.21922,557.96571 12.93027,0 0,-12.93027 -12.93027,0 z"
       style="fill:#4e4b4c;fill-rule:nonzero;stroke:none" />
    <path
       id="path16153"
       d="m 414.2409,557.96571 12.95011,0 0,-12.93027 -12.95011,0 z"
       style="fill:#4e4b4c;fill-rule:nonzero;stroke:none" />
    <path
       id="path16155"
       d="m 399.24813,557.96571 12.93027,0 0,-12.93027 -12.93027,0 z"
       style="fill:#4e4b4c;fill-rule:nonzero;stroke:none" />
    <path
       id="path16157"
       d="m 369.24275,557.96571 12.93028,0 0,-12.93027 -12.93028,0 z"
       style="fill:#4e4b4c;fill-rule:nonzero;stroke:none" />
    <path
       id="path16159"
       d="m 474.23182,587.97109 12.93028,0 0,-12.93028 -12.93028,0 z"
       style="fill:#4e4b4c;fill-rule:nonzero;stroke:none" />
    <path
       id="path16161"
       d="m 459.21922,587.97109 12.93027,0 0,-12.93028 -12.93027,0 z"
       style="fill:#4e4b4c;fill-rule:nonzero;stroke:none" />
    <path
       id="path16163"
       d="m 474.23182,617.89714 12.93028,0 0,-12.95011 -12.93028,0 z"
       style="fill:#4e4b4c;fill-rule:nonzero;stroke:none" />
    <path
       id="path16165"
       d="m 459.21922,617.89714 12.93027,0 0,-12.95011 -12.93027,0 z"
       style="fill:#4e4b4c;fill-rule:nonzero;stroke:none" />
    <path
       id="path16167"
       d="m 609.2461,572.97832 12.95011,0 0,-12.93028 -12.95011,0 z"
       style="fill:#4e4b4c;fill-rule:nonzero;stroke:none" />
    <path
       id="path16169"
       d="m 609.2461,587.97109 12.95011,0 0,-12.93028 -12.95011,0 z"
       style="fill:#4e4b4c;fill-rule:nonzero;stroke:none" />
    <path
       id="path16171"
       d="m 609.2461,602.98369 12.95011,0 0,-12.93027 -12.95011,0 z"
       style="fill:#4e4b4c;fill-rule:nonzero;stroke:none" />
    <path
       id="path16173"
       d="m 564.24795,572.97832 12.93028,0 0,-12.93028 -12.93028,0 z"
       style="fill:#4e4b4c;fill-rule:nonzero;stroke:none" />
    <path
       id="path16175"
       d="m 564.24795,587.97109 12.93028,0 0,-12.93028 -12.93028,0 z"
       style="fill:#4e4b4c;fill-rule:nonzero;stroke:none" />
    <path
       id="path16177"
       d="m 564.24795,602.98369 12.93028,0 0,-12.93027 -12.93028,0 z"
       style="fill:#4e4b4c;fill-rule:nonzero;stroke:none" />
    <path
       id="path16179"
       d="m 564.24795,617.95663 12.93028,0 0,-12.93027 -12.93028,0 z"
       style="fill:#4e4b4c;fill-rule:nonzero;stroke:none" />
    <path
       id="path16181"
       d="m 519.2498,572.97832 12.93028,0 0,-12.93028 -12.93028,0 z"
       style="fill:#4e4b4c;fill-rule:nonzero;stroke:none" />
    <path
       id="path16183"
       d="m 519.2498,587.97109 12.93028,0 0,-12.93028 -12.93028,0 z"
       style="fill:#4e4b4c;fill-rule:nonzero;stroke:none" />
    <path
       id="path16185"
       d="m 489.2246,572.97832 12.93027,0 0,-12.93028 -12.93027,0 z"
       style="fill:#4e4b4c;fill-rule:nonzero;stroke:none" />
    <path
       id="path16187"
       d="m 489.2246,587.97109 12.93027,0 0,-12.93028 -12.93027,0 z"
       style="fill:#4e4b4c;fill-rule:nonzero;stroke:none" />
    <path
       id="path16189"
       d="m 519.2498,602.98369 12.93028,0 0,-12.93027 -12.93028,0 z"
       style="fill:#4e4b4c;fill-rule:nonzero;stroke:none" />
    <path
       id="path16191"
       d="m 444.22645,572.97832 12.93027,0 0,-12.93028 -12.93027,0 z"
       style="fill:#4e4b4c;fill-rule:nonzero;stroke:none" />
    <path
       id="path16193"
       d="m 444.22645,587.97109 12.93027,0 0,-12.93028 -12.93027,0 z"
       style="fill:#4e4b4c;fill-rule:nonzero;stroke:none" />
    <path
       id="path16195"
       d="m 444.22645,602.98369 12.93027,0 0,-12.93027 -12.93027,0 z"
       style="fill:#4e4b4c;fill-rule:nonzero;stroke:none" />
    <path
       id="path16197"
       d="m 369.24275,572.97832 12.93028,0 0,-12.93028 -12.93028,0 z"
       style="fill:#4e4b4c;fill-rule:nonzero;stroke:none" />
    <path
       id="path16199"
       d="m 384.23552,572.97832 12.93028,0 0,-12.93028 -12.93028,0 z"
       style="fill:#4e4b4c;fill-rule:nonzero;stroke:none" />
    <path
       id="path16201"
       d="m 369.24275,587.97109 12.93028,0 0,-12.93028 -12.93028,0 z"
       style="fill:#4e4b4c;fill-rule:nonzero;stroke:none" />
    <path
       id="path16203"
       d="m 369.24275,602.98369 12.93028,0 0,-12.93027 -12.93028,0 z"
       style="fill:#4e4b4c;fill-rule:nonzero;stroke:none" />
    <path
       id="path16205"
       d="m 369.24275,617.95663 12.93028,0 0,-12.93027 -12.93028,0 z"
       style="fill:#4e4b4c;fill-rule:nonzero;stroke:none" />
    <path
       id="path16207"
       d="m 339.21754,557.96571 12.93028,0 0,-12.93027 -12.93028,0 z"
       style="fill:#4e4b4c;fill-rule:nonzero;stroke:none" />
    <path
       id="path16209"
       d="m 324.22477,557.96571 12.93027,0 0,-12.93027 -12.93027,0 z"
       style="fill:#4e4b4c;fill-rule:nonzero;stroke:none" />
    <path
       id="path16211"
       d="m 294.19956,557.96571 12.95011,0 0,-12.93027 -12.95011,0 z"
       style="fill:#4e4b4c;fill-rule:nonzero;stroke:none" />
    <path
       id="path16213"
       d="m 294.19956,572.97832 12.95011,0 0,-12.93028 -12.95011,0 z"
       style="fill:#4e4b4c;fill-rule:nonzero;stroke:none" />
    <path
       id="path16215"
       d="m 309.21216,572.97832 12.93028,0 0,-12.93028 -12.93028,0 z"
       style="fill:#4e4b4c;fill-rule:nonzero;stroke:none" />
    <path
       id="path16217"
       d="m 294.19956,587.97109 12.95011,0 0,-12.93028 -12.95011,0 z"
       style="fill:#4e4b4c;fill-rule:nonzero;stroke:none" />
    <path
       id="path16219"
       d="m 294.19956,602.98369 12.95011,0 0,-12.93027 -12.95011,0 z"
       style="fill:#4e4b4c;fill-rule:nonzero;stroke:none" />
    <path
       id="path16221"
       d="m 294.19956,617.95663 12.95011,0 0,-12.93027 -12.95011,0 z"
       style="fill:#4e4b4c;fill-rule:nonzero;stroke:none" />
    <path
       id="path16223"
       d="m 264.23385,557.96571 12.93027,0 0,-12.93027 -12.93027,0 z"
       style="fill:#4e4b4c;fill-rule:nonzero;stroke:none" />
    <path
       id="path16225"
       d="m 264.23385,572.97832 12.93027,0 0,-12.93028 -12.93027,0 z"
       style="fill:#4e4b4c;fill-rule:nonzero;stroke:none" />
    <path
       id="path16227"
       d="m 264.23385,587.97109 12.93027,0 0,-12.93028 -12.93027,0 z"
       style="fill:#4e4b4c;fill-rule:nonzero;stroke:none" />
    <path
       id="path16229"
       d="m 264.23385,602.98369 12.93027,0 0,-12.93027 -12.93027,0 z"
       style="fill:#4e4b4c;fill-rule:nonzero;stroke:none" />
    <path
       id="path16231"
       d="m 219.21586,557.96571 12.93028,0 0,-12.93027 -12.93028,0 z"
       style="fill:#4e4b4c;fill-rule:nonzero;stroke:none" />
    <path
       id="path16233"
       d="m 189.21049,558.00537 12.93027,0 0,-12.93027 -12.93027,0 z"
       style="fill:#4e4b4c;fill-rule:nonzero;stroke:none" />
    <path
       id="path16235"
       d="m 219.21586,572.97832 12.93028,0 0,-12.93028 -12.93028,0 z"
       style="fill:#4e4b4c;fill-rule:nonzero;stroke:none" />
    <path
       id="path16237"
       d="m 219.21586,587.97109 12.93028,0 0,-12.93028 -12.93028,0 z"
       style="fill:#4e4b4c;fill-rule:nonzero;stroke:none" />
    <path
       id="path16239"
       d="m 219.21586,602.98369 12.93028,0 0,-12.93027 -12.93028,0 z"
       style="fill:#4e4b4c;fill-rule:nonzero;stroke:none" />
    <path
       id="path16241"
       d="m 144.19251,588.01075 12.93027,0 0,-12.9501 -12.93027,0 z"
       style="fill:#4e4b4c;fill-rule:nonzero;stroke:none" />
    <path
       id="path16243"
       d="m 144.19251,573.01798 12.93027,0 0,-12.93028 -12.93027,0 z"
       style="fill:#4e4b4c;fill-rule:nonzero;stroke:none" />
    <path
       id="path16245"
       d="m 144.19251,602.98369 12.93027,0 0,-12.93027 -12.93027,0 z"
       style="fill:#4e4b4c;fill-rule:nonzero;stroke:none" />
    <path
       id="path16247"
       d="m 264.23385,617.95663 12.93027,0 0,-12.93027 -12.93027,0 z"
       style="fill:#4e4b4c;fill-rule:nonzero;stroke:none" />
    <path
       id="path16249"
       d="m 234.20864,617.95663 12.9501,0 0,-12.93027 -12.9501,0 z"
       style="fill:#4e4b4c;fill-rule:nonzero;stroke:none" />
    <path
       id="path16251"
       d="m 249.22124,617.95663 12.93028,0 0,-12.93027 -12.93028,0 z"
       style="fill:#4e4b4c;fill-rule:nonzero;stroke:none" />
    <path
       id="path16253"
       d="m 189.19066,617.95663 12.93027,0 0,-12.93027 -12.93027,0 z"
       style="fill:#4e4b4c;fill-rule:nonzero;stroke:none" />
    <path
       id="path16255"
       d="m 159.16545,617.95663 12.9501,0 0,-12.93027 -12.9501,0 z"
       style="fill:#4e4b4c;fill-rule:nonzero;stroke:none" />
    <path
       id="path16257"
       d="m 174.17805,617.95663 12.95011,0 0,-12.93027 -12.95011,0 z"
       style="fill:#4e4b4c;fill-rule:nonzero;stroke:none" />
    <path
       id="path16259"
       d="m 159.16545,558.00537 12.9501,0 0,-12.93027 -12.9501,0 z"
       style="fill:#4e4b4c;fill-rule:nonzero;stroke:none" />
    <path
       id="path16261"
       d="m 174.17805,558.00537 12.95011,0 0,-12.93027 -12.95011,0 z"
       style="fill:#4e4b4c;fill-rule:nonzero;stroke:none" />
    <path
       id="path16263"
       d="m 519.2498,617.95663 12.93028,0 0,-12.93027 -12.93028,0 z"
       style="fill:#4e4b4c;fill-rule:nonzero;stroke:none" />
    <path
       id="path16265"
       d="m 624.25871,617.97647 12.93027,0 0,-12.93028 -12.93027,0 z"
       style="fill:#4e4b4c;fill-rule:nonzero;stroke:none" />
  </g>
</svg>
