<?xml version="1.0" encoding="utf-8"?>
<!-- Generator: Adobe Illustrator 16.0.4, SVG Export Plug-In . SVG Version: 6.00 Build 0)  -->
<!DOCTYPE svg PUBLIC "-//W3C//DTD SVG 1.0//EN" "http://www.w3.org/TR/2001/REC-SVG-20010904/DTD/svg10.dtd">
<svg version="1.0" id="Ebene_1" xmlns="http://www.w3.org/2000/svg" xmlns:xlink="http://www.w3.org/1999/xlink" x="0px" y="0px"
	 width="348.117px" height="108.539px" viewBox="0 0 348.117 108.539" enable-background="new 0 0 348.117 108.539"
	 xml:space="preserve">
<g>
	<path fill="#0083CA" d="M149.127,0c7.348,4.866,14.865,9.565,21.801,14.843c-15.671,9.84-31.034,19.989-46.616,29.918
		c2.366,1.809,5.056,3.293,7.421,5.102c15.712-9.954,31.429-19.902,47.081-29.918c7.019,4.345,13.931,8.798,20.41,13.684
		c-15.683,9.906-30.842,20.336-46.385,30.381c2.303,1.873,5.126,3.224,7.653,4.871c16.065-9.833,31.73-20.066,47.543-30.149
		c0-10.978,0-21.956,0-32.934c11.597,0,23.193,0,34.789,0c0,21.878,0,43.757,0,65.634c9.818,0.541,20.64,0.078,30.845,0.231
		c0,10.282,0,20.564,0,30.847c-21.879,0-43.755,0-65.634,0c0-10.438,0-20.873,0-31.311c-19.285,11.716-39.045,24.965-58.444,37.34
		c-20.201-13.117-39.67-26.97-59.836-40.121c-5.841,18.516-19.716,32.446-42.674,34.092c-14.319,1.024-30.588-0.765-47.081,0
		C0,70.274,0,38.035,0,5.798c20.619,1.366,43.258-2.757,59.604,2.319c14.453,4.489,24.7,16.021,29.454,30.382
		C109.24,25.824,129.097,12.827,149.127,0z M33.165,36.876c0,11.596,0,23.192,0,34.788c8.287,0.041,14.589,0.522,19.481-3.245
		c7.277-5.606,8.743-19.5,2.319-26.905c-4.287-4.94-11.525-5.977-21.569-5.334C33.127,36.219,33.145,36.547,33.165,36.876z"/>
	<path fill="#0083CA" d="M282.714,5.798c11.597,0,23.19,0,34.787,0c0,21.956,0,43.911,0,65.866c10.205,0,20.41,0,30.615,0
		c0,10.282,0,20.564,0,30.847c-21.879,0-43.759,0-65.636,0c0-32.006,0-64.011,0-96.017C282.462,6.165,282.444,5.837,282.714,5.798z"
		/>
</g>
</svg>
