<?xml version="1.0" encoding="utf-8"?>
<!-- Generator: Adobe Illustrator 16.0.4, SVG Export Plug-In . SVG Version: 6.00 Build 0)  -->
<!DOCTYPE svg PUBLIC "-//W3C//DTD SVG 1.0//EN" "http://www.w3.org/TR/2001/REC-SVG-20010904/DTD/svg10.dtd">
<svg version="1.0" id="Layer_1" xmlns="http://www.w3.org/2000/svg" xmlns:xlink="http://www.w3.org/1999/xlink" x="0px" y="0px"
	 width="246.941px" height="65px" viewBox="0 0 246.941 65" enable-background="new 0 0 246.941 65" xml:space="preserve">
<path d="M162.249,16.288c5.188-1.894,10.235-3.738,13.932-5.087c-4.278-1.55-6.938-1.035-14.234,3.886
	c-0.753-0.817-1.544-1.678-2.925-3.18c0.457,1.979,0.729,3.153,0.987,4.28C151.5,20.019,141.337,12.392,137.792,0
	c5.329,0.656,10.776,1.124,16.146,2.048c4.57,0.787,7.879,3.331,8.656,8.355c4.595-6.621,9.589-8.472,19.369-5.194
	c3.573,1.197,6.726,3.601,10.2,5.154c3.05,1.363,6.286,2.308,9.733,3.542c-7.146,7.18-16.396,10.777-26.982,10.723
	C168.308,24.594,165.157,22.354,162.249,16.288z M171.227,53.837c-2.42,0-4.356,0-6.682,0c0-7.772,0-15.637,0-23.348
	c4.549-0.487,8.947-1.333,13.338-1.283c2.414,0.028,4.812,1.562,7.896,2.657c0.684-0.365,2.214-1.346,3.867-2.032
	c5.643-2.343,11.165,0.593,11.652,6.623c0.453,5.586,0.099,11.237,0.099,17.253c-2.038,0-4.081,0-6.873,0
	c0-4.443,0.28-8.906-0.141-13.302c-0.163-1.729-1.89-3.312-2.903-4.96c-1.631,1.552-4.393,2.926-4.668,4.688
	c-0.684,4.35-0.226,8.874-0.226,13.647c-2.683,0-4.723,0-7.376,0c0-4.454-0.07-8.729,0.025-13c0.062-2.771-0.525-5.64-3.666-5.075
	c-1.694,0.303-3.859,3.124-4.15,5.061C170.79,44.954,171.227,49.305,171.227,53.837z M26.597,43.609c-3.489,0-6.104,0-9.048,0
	c0-2.158,0-3.895,0-6.039c5.414,0,10.783,0,16.118,0c1.369,7.383-3.203,14.304-10.862,16.729c-8.33,2.639-17.569-1.458-21.279-9.434
	C-2.038,37.203,0.859,28.09,7.95,23.38c6.099-4.052,19.57-3.409,23.502,3.895c-1.135,1.217-2.348,2.516-3.517,3.768
	c-10.398-4.96-16.211-4.478-19.698,1.521c-2.632,4.527-1.295,10.665,3.005,13.804C15.835,49.718,21.926,48.951,26.597,43.609z
	 M127.476,54.09c0-11.212,0-21.764,0-32.812c8.421,0.075,17.019-1.614,22.829,6.402c4.391,6.056,4.369,12.896,1.051,19.237
	C146.077,57.004,136.332,53.55,127.476,54.09z M134.579,28.262c0,6.53,0,12.698,0,18.843c9.334,0.287,11.705-1.699,11.631-9.438
	C146.145,30.881,142.565,27.911,134.579,28.262z M228.999,44.025c-6.369,0-12.336,0-18.377,0c1.482,4.634,4.188,6.113,8.606,3.974
	c3.313-1.606,5.524-0.767,7.94,1.278c-4.894,6.14-11.215,7.494-17.604,3.922c-5.645-3.155-7.918-9.659-5.541-15.848
	c2.322-6.042,8.594-9.484,14.793-8.119C225.539,30.718,229.282,35.965,228.999,44.025z M221.631,38.348
	c-4.379-4.503-6.979-4.442-10.516,0C214.539,38.348,217.719,38.348,221.631,38.348z M73.03,44.049c-6.32,0-12.376,0-19.031,0
	c2.255,4.916,5.309,5.432,9.543,4.229c2.3-0.65,4.938-0.114,8.167-0.114c-4.496,6.563-11.186,8.344-17.192,5.479
	c-5.579-2.658-8.48-9.188-6.654-14.978c2.064-6.548,7.706-10.332,13.965-9.37C69.076,30.409,73.057,35.35,73.03,44.049z
	 M54.968,38.609c3.673,0,7.164,0,10.822,0C62.456,33.677,58.224,33.665,54.968,38.609z M99.49,43.961c-6.258,0-12.201,0-18.241,0
	c1.315,4.574,4.188,5.702,8.693,4.387c2.332-0.681,4.938-0.423,8.254-0.645c-3.616,6.718-10.209,8.727-16.489,6.214
	c-5.746-2.298-8.925-8.871-7.376-15.248C75.733,32.9,81.95,28.572,87.9,29.224C95.288,30.033,99.431,35.041,99.49,43.961z
	 M92.381,38.652c-3.561-5.039-7.813-4.963-10.826,0C85.082,38.652,88.48,38.652,92.381,38.652z M123.233,53.839
	c-2.081,0-3.818,0-6.158,0c0-4.261,0.102-8.373-0.037-12.478c-0.089-2.631-0.092-5.92-3.707-5.989
	c-3.726-0.07-4.916,2.948-5.046,6.162c-0.161,3.962-0.039,7.936-0.039,12.228c-2.23,0-4.127,0-6.375,0c0-7.781,0-15.51,0-23.007
	c4.636-0.558,8.896-1.454,13.16-1.472c4.105-0.017,7.759,1.94,8.095,6.496C123.562,41.688,123.233,47.65,123.233,53.839z
	 M246.735,33.457c-1.703,1.33-2.882,2.25-4.247,3.316c-1.593-0.349-3.562-0.775-5.229-1.139c3.391,3.854,6.812,7.295,9.553,11.215
	c0.586,0.84-0.934,3.743-2.136,5.129c-4.129,4.754-10.227,4.092-15.649-1.724c1.113-1.298,2.26-2.636,3.186-3.714
	c2.699,0.693,5.138,1.322,7.572,1.95c0.199-0.603,0.399-1.2,0.6-1.802c-1.764-1.058-3.527-2.109-5.287-3.172
	c-4.812-2.902-6.477-7.028-4.27-10.577c2.61-4.193,8.129-5.147,12.668-2.141C244.435,31.427,245.253,32.234,246.735,33.457z
	 M35.399,30.319c4.303-0.251,8.349-0.486,12.395-0.723c0.318,0.464,0.638,0.929,0.955,1.393c-1.515,1.407-3.34,2.604-4.461,4.274
	c-1.281,1.909-2.488,4.178-2.738,6.4c-0.438,3.898-0.12,7.887-0.12,12.124c-2.17,0-3.911,0-6.028,0
	C35.399,46.109,35.399,38.4,35.399,30.319z M161.803,30.242c0,7.828,0,15.396,0,23.41c-2.018,0-4.049,0-6.408,0
	c0-7.606,0-15.326,0-23.41C157.45,30.242,159.463,30.242,161.803,30.242z M158.196,30.472c-1.966-3.218-4.073-5.153-3.771-6.569
	c0.346-1.597,2.784-3.619,4.455-3.759c1.215-0.102,3.706,2.549,3.721,3.988C162.615,25.747,160.479,27.381,158.196,30.472z"/>
</svg>
