<?xml version="1.0" encoding="utf-8"?>
<!-- Generator: Adobe Illustrator 16.0.4, SVG Export Plug-In . SVG Version: 6.00 Build 0)  -->
<!DOCTYPE svg PUBLIC "-//W3C//DTD SVG 1.0//EN" "http://www.w3.org/TR/2001/REC-SVG-20010904/DTD/svg10.dtd">
<svg version="1.0" id="Layer_1" xmlns="http://www.w3.org/2000/svg" xmlns:xlink="http://www.w3.org/1999/xlink" x="0px" y="0px"
	 width="306px" height="43.043px" viewBox="0 0 306 43.043" enable-background="new 0 0 306 43.043" xml:space="preserve">
<path d="M199.792,43.064c-2.076,0-3.979,0-6.043,0c0-0.48,0-0.924,0-1.366c0-9,0.01-18-0.013-27
	c-0.002-1.035-0.094-2.086-0.291-3.101c-0.709-3.661-2.986-5.856-6.563-6.707c-2.745-0.653-5.532-0.746-8.309-0.216
	c-5.607,1.071-9.07,4.991-9.806,11.099c-0.17,1.402-0.254,2.822-0.259,4.234c-0.024,7.208-0.012,14.416-0.012,21.625
	c0,0.449,0,0.898,0,1.411c-2.019,0-3.92,0-6.042,0c0-0.455,0-0.932,0-1.407c0-8.917,0.01-17.834-0.014-26.75
	c-0.002-1.076-0.074-2.175-0.293-3.225c-0.945-4.534-4.106-7.065-9.298-7.253c-1.891-0.068-3.851,0.12-5.688,0.567
	c-5.731,1.396-8.659,5.403-9.645,11.003c-0.229,1.304-0.294,2.65-0.299,3.978c-0.028,7.208-0.013,14.417-0.013,21.625
	c0,0.45,0,0.899,0,1.44c-2.04,0-3.975,0-5.999,0c0-13.856,0-27.708,0-41.631c1.801,0,3.569,0,5.488,0c0,2.286,0,4.545,0,7.166
	c0.812-1.022,1.357-1.782,1.976-2.475c4.503-5.04,10.331-6.468,16.76-5.841c2.153,0.209,4.33,0.871,6.338,1.707
	c2.744,1.142,4.662,3.288,5.744,6.162c4.467-6.726,10.961-8.425,18.364-7.92c1.485,0.101,2.987,0.349,4.424,0.74
	c5.792,1.576,9.263,5.781,9.41,11.896c0.187,7.704,0.067,15.415,0.08,23.122C199.795,38.273,199.792,40.6,199.792,43.064z
	 M38.118,43.064c-2.088,0-3.995,0-6.086,0c0-0.521,0-1.004,0-1.487c0-8.831-0.125-17.665,0.039-26.493
	c0.137-7.356-4.073-11.133-11.496-10.667c-2,0.125-4.081,0.542-5.923,1.309c-5.05,2.099-7.3,6.373-7.612,11.537
	c-0.34,5.646-0.204,11.32-0.254,16.982c-0.025,2.905-0.004,5.812-0.004,8.792c-2.049,0-3.979,0-5.977,0c0-13.896,0-27.743,0-41.653
	c1.819,0,3.585,0,5.496,0c0,2.32,0,4.577,0,7.055c0.31-0.251,0.452-0.322,0.53-0.436C11.287,1.523,17.7-0.38,25.15,0.201
	c2.863,0.223,5.556,1.048,7.948,2.691c1.854,1.274,3.203,2.975,3.927,4.897c1.586-1.513,3.011-3.231,4.77-4.478
	c4.091-2.898,8.81-3.546,13.701-3.128c1.485,0.127,2.983,0.356,4.423,0.739c5.949,1.58,9.253,5.869,9.514,12.492
	c0.147,3.743,0.056,7.497,0.06,11.246c0.006,5.665,0.001,11.33,0.001,16.996c0,0.445,0,0.892,0,1.396c-2.034,0-3.936,0-6.042,0
	c0-0.481,0-0.96,0-1.438c0-8.664,0.01-17.329-0.012-25.994c-0.003-1.203-0.08-2.419-0.269-3.606
	c-0.599-3.762-2.778-6.15-6.476-7.075c-2.821-0.706-5.69-0.826-8.544-0.245c-5.501,1.121-8.795,4.701-9.638,10.533
	c-0.267,1.846-0.364,3.729-0.376,5.597c-0.043,6.874-0.017,13.746-0.017,20.619C38.118,41.938,38.118,42.432,38.118,43.064z
	 M116.118,30.848c1.625,1.035,3.162,2.017,4.797,3.06c-1.133,2.511-2.822,4.516-4.938,6.165c-2.829,2.205-6.109,3.345-9.622,3.854
	c-4.882,0.712-9.717,0.589-14.436-1.007c-5.722-1.936-9.695-5.744-11.761-11.408c-2.205-6.039-2.27-12.165-0.019-18.204
	c2.244-6.022,6.475-10.092,12.645-12.017c5.306-1.655,10.692-1.752,15.985-0.104c7.962,2.481,12.226,8.255,13.7,16.251
	c0.359,1.944,0.41,3.946,0.622,6.114c-12.954,0-25.668,0-38.374,0c-0.305,7.13,4.292,13.773,10.828,15.699
	c4.023,1.187,8.076,1.076,12.051-0.233C111.67,37.678,114.427,34.861,116.118,30.848z M84.801,19.2c10.626,0,21.255,0,31.878,0
	c0.662-7.554-6.726-14.718-15.213-14.839C92.547,4.234,84.381,11.476,84.801,19.2z M253.438,23.604c-13.025,0-25.676,0-38.312,0
	c-0.799,6.207,4.046,13.408,10.366,15.516c8.666,2.889,16.379-0.085,21.055-8.223c1.565,0.996,3.128,1.989,4.754,3.022
	c-1.805,3.661-4.414,6.486-8.095,8.049c-7.68,3.261-15.482,3.347-23.158,0.023c-4.736-2.052-7.87-5.779-9.594-10.636
	c-1.952-5.502-2.102-11.093-0.428-16.676c2.431-8.105,9.004-13.445,17.412-14.368c3.978-0.437,7.914-0.341,11.738,0.881
	c7.689,2.458,11.967,7.958,13.536,15.686C253.146,19.014,253.193,21.227,253.438,23.604z M247.08,19.208
	c0.243-8.402-7.372-15.224-16.49-14.845c-8.213,0.342-16.137,7.966-15.415,14.845C225.811,19.208,236.445,19.208,247.08,19.208z
	 M258.962,23.621c0.002-13.336,8.095-22.19,19.938-23.343c5.021-0.489,9.899-0.076,14.556,1.953
	c9.36,4.078,13.271,13.266,12.433,22.164c-0.703,7.448-3.986,13.541-10.807,16.894c-9.594,4.715-19.238,4.502-28.104-1.871
	C261.229,35.284,259.074,29.124,258.962,23.621z M299.872,22.854c0-0.662,0.047-1.331-0.007-1.988
	C298.542,4.835,283.234,1.45,273.77,6.448c-6.861,3.623-10.207,12.175-8.203,20.478c1.883,7.807,8.018,12.852,16.021,13.094
	c5.112,0.153,9.725-1.16,13.389-4.953C298.264,31.664,299.686,27.5,299.872,22.854z"/>
</svg>
