<?xml version="1.0" encoding="utf-8"?>
<!-- Generator: Adobe Illustrator 16.0.4, SVG Export Plug-In . SVG Version: 6.00 Build 0)  -->
<!DOCTYPE svg PUBLIC "-//W3C//DTD SVG 1.0//EN" "http://www.w3.org/TR/2001/REC-SVG-20010904/DTD/svg10.dtd">
<svg version="1.0" id="Layer_1" xmlns="http://www.w3.org/2000/svg" xmlns:xlink="http://www.w3.org/1999/xlink" x="0px" y="0px"
	 width="404.669px" height="81.62px" viewBox="0 0 404.669 81.62" enable-background="new 0 0 404.669 81.62" xml:space="preserve">
<g>
	<path d="M0,16.698c4.918,0.562,9.259,1.061,15.584,1.786c13.228-8.18,29.029-0.616,31.134,17.386
		c0.354,3.026,0.289,6.14,0.075,9.188c-1.021,14.62-13.059,26.805-32.048,17.966c0,6.286,0,12.252,0,18.596
		c-5.366,0-9.951,0-14.745,0C0,60.237,0,39.104,0,16.698z M33.63,41.338c-0.571-3.223-0.778-5.581-1.43-7.81
		c-1.188-4.062-3.515-7.241-8.157-7.441c-4.611-0.2-8.115,2.626-8.69,6.64c-0.815,5.681-0.728,11.723,0.379,17.333
		c0.434,2.201,4.604,4.952,7.188,5.078c2.567,0.127,6.133-2.145,7.709-4.433C32.55,47.919,32.848,44.017,33.63,41.338z"/>
	<path d="M271.501,66.43c-16.284,0.032-26.063-9.368-26.173-25.16c-0.111-15.971,9.639-26.012,25.361-26.114
		c16.048-0.104,26.627,10.021,26.791,25.646C297.645,56.27,287.378,66.397,271.501,66.43z M274.728,56.137
		c0-2.144,0.014-4.09-0.002-6.034c-0.042-5.283-2.613-10.783,2.756-15.515c1.065-0.939-0.284-6.287-2.017-8.338
		c-2.482-2.94-6.33-2.352-9.165,0.394c-2.627,2.542-3.667,6.237-0.94,8.719c3.779,3.441,3.082,7.292,2.821,11.34
		c-0.195,3.031-0.479,6.058-0.751,9.435C270.011,56.137,272.25,56.137,274.728,56.137z"/>
	<path d="M355.729,64.859c0-21.708,0-43.012,0-64.711c4.478,0,8.736,0,13.552,0c0,10.259,0,20.674,0,31.09
		c0.442,0.27,0.887,0.541,1.332,0.811c3.11-3.274,6.459-6.361,9.274-9.873c3.324-4.145,7.176-6.182,12.578-5.457
		c2.805,0.377,5.701,0.066,10.045,0.066c-6.061,6.402-11.174,11.805-16.442,17.37c6.1,10.166,12.11,20.185,18.602,31.005
		c-5.33,0-9.801,0.273-14.207-0.146c-1.57-0.149-3.455-1.665-4.383-3.088c-3.545-5.437-6.758-11.089-10.096-16.66
		c-4.619,2.834-4.619,2.834-6.882,19.593C364.875,64.859,360.596,64.859,355.729,64.859z"/>
	<path d="M212.606,44.044c-11.239,0-22.21,0-33.332,0c-0.621,5.796,1.921,9.205,6.525,10.985c5.729,2.216,10.438-0.059,16.188-7.535
		c1.641,0.779,3.399,1.58,5.127,2.444c1.604,0.801,3.174,1.668,4.732,2.492c-4.082,11.218-18.705,17.3-31.859,13.413
		c-11.945-3.53-18.357-16.025-15.512-30.227c2.903-14.488,13.314-22.081,27.858-20.315
		C205.709,16.926,213.572,27.683,212.606,44.044z M179.542,34.513c6.007,0,11.999,0,18.03,0c-0.801-6.144-3.27-8.569-8.514-8.708
		C183.672,25.662,180.454,28.59,179.542,34.513z"/>
	<path d="M339.85,48.258c3.562,1.865,6.742,3.531,9.906,5.189c-4.861,10.452-15.072,15.04-27.824,12.728
		c-10.725-1.944-17.762-10.929-18.507-23.626c-0.706-12.058,5.759-22.602,15.828-25.809c12.154-3.873,23.863,0.041,30.207,10.589
		c-3.215,1.847-6.43,3.694-9.588,5.509c-8.463-7.172-13.725-7.809-18.467-2.352c-4.453,5.122-3.82,17.782,1.078,21.609
		C328.982,57.176,333.939,56.146,339.85,48.258z"/>
	<path d="M150.322,33.225c-3.302-4.635-6.739-7.845-12.179-6.178c-5.302,1.623-6.568,6.329-7.435,11.023
		c-0.353,1.911-0.291,3.992,0.038,5.917c0.86,5.035,2.754,9.652,8.3,10.954c5.414,1.27,8.863-1.899,11.519-6.767
		c3.475,1.782,6.794,3.486,10.094,5.179c-3.934,9.594-13.684,14.609-24.892,13.04c-11.673-1.637-18.744-9.439-20.006-22.079
		c-1.277-12.791,4.658-23.635,14.94-27.298c11.635-4.146,22.561-0.63,29.829,10.041C157.216,29.059,153.926,31.047,150.322,33.225z"
		/>
	<path d="M221.965,0c4.744,0,9.205,0,13.98,0c0,21.702,0,43.16,0,64.892c-4.691,0-9.144,0-13.98,0
		C221.965,43.45,221.965,22.021,221.965,0z"/>
	<path d="M56.478,16.646c5,1.342,10.617-2.457,14.901,3.273c3.603-1.213,7.898-2.658,12.744-4.287c0,4.881,0,8.785,0,12.643
		c-0.326,0.295-0.551,0.676-0.842,0.735c-12.639,2.589-12.64,2.585-12.64,15.728c0,6.633,0,13.267,0,20.157
		c-4.99,0-9.413,0-14.164,0C56.478,48.919,56.478,33.143,56.478,16.646z"/>
	<path d="M92.567,17.121c4.431,0,8.855,0,13.528,0c0,15.912,0,31.563,0,47.631c-4.374,0-8.767,0-13.528,0
		C92.567,49.045,92.567,33.252,92.567,17.121z"/>
	<path d="M106.077,0.034c0,3.638,0,6.944,0,10.511c-4.501,0-8.75,0-13.436,0c0-3.354,0-6.785,0-10.511
		C96.982,0.034,101.229,0.034,106.077,0.034z"/>
</g>
</svg>
